<?xml version="1.0" encoding="UTF-8" standalone="no"?>
<svg
   xmlns:dc="http://purl.org/dc/elements/1.1/"
   xmlns:cc="http://creativecommons.org/ns#"
   xmlns:rdf="http://www.w3.org/1999/02/22-rdf-syntax-ns#"
   xmlns:sodipodi="http://sodipodi.sourceforge.net/DTD/sodipodi-0.dtd"
   xmlns:inkscape="http://www.inkscape.org/namespaces/inkscape"
   xmlns="http://www.w3.org/2000/svg"
   enable-background="new 0 0 512 512"
   height="512px"
   id="Layer_1"
   version="1.1"
   viewBox="0 0 512 512"
   width="512px"
   xml:space="preserve"
   inkscape:version="0.91 r13725"
   sodipodi:docname="email-dark.svg"><metadata
     id="metadata3687"><rdf:RDF><cc:Work
         rdf:about=""><dc:format>image/svg+xml</dc:format><dc:type
           rdf:resource="http://purl.org/dc/dcmitype/StillImage" /><dc:title></dc:title></cc:Work></rdf:RDF></metadata><defs
     id="defs3685" /><sodipodi:namedview
     pagecolor="#ffffff"
     bordercolor="#666666"
     borderopacity="1"
     objecttolerance="10"
     gridtolerance="10"
     guidetolerance="10"
     inkscape:pageopacity="0"
     inkscape:pageshadow="2"
     inkscape:window-width="1920"
     inkscape:window-height="1056"
     id="namedview3683"
     showgrid="false"
     inkscape:zoom="0.4609375"
     inkscape:cx="256"
     inkscape:cy="256"
     inkscape:window-x="0"
     inkscape:window-y="24"
     inkscape:window-maximized="1"
     inkscape:current-layer="Layer_1" /><g
     id="g3671"><path
       d="M510.689,478.854c0,17.561-14.275,31.836-31.836,31.836H33.146c-17.56,0-31.836-14.275-31.836-31.836   V33.146c0-17.56,14.276-31.836,31.836-31.836h445.707c17.561,0,31.836,14.276,31.836,31.836V478.854z"
       fill="#E04C40"
       id="path3673" /></g><g
     id="g3675"><path
       d="M110.664,130.22h290.869c15.32,0,27.82,12.5,27.82,27.817v195.93c0,15.324-12.5,27.813-27.82,27.813   H110.664c-15.522,0-28.018-12.488-28.018-27.813v-195.93C82.646,142.72,95.142,130.22,110.664,130.22L110.664,130.22z"
       fill="#FFFFFF"
       id="path3677" /><path
       d="M256.002,290.195l137.826-97.31v190.148h9.16c15.475,0,28.1-12.613,28.1-28.092V166.622v-9.568   c0-13.031-8.965-24.023-21.184-27.284L256.002,238.487L102.288,129.77c-12.22,3.053-21.374,14.251-21.374,27.284v9.363v188.526   c0,15.477,12.619,28.092,28.298,28.092h8.956V192.886L256.002,290.195z"
       fill="#DF4B3F"
       id="path3679" /><path
       d="M393.828,192.886v190.149h9.16c15.475,0,28.1-12.613,28.1-28.092V166.622L393.828,192.886z"
       fill="#DF4B3F"
       id="path3681" /></g><path
     style="fill:#333333"
     d="M 16.700492,504.47202 C 0.71662514,493.79408 1.7427261,510.78053 1.7389646,256.79343 1.735626,31.355867 1.7791074,29.049526 6.2049809,19.906891 9.449902,13.203778 13.203778,9.449902 19.906892,6.2049809 29.049526,1.7791074 31.355867,1.735626 256.79343,1.7389646 510.78053,1.7427261 493.79408,0.71662518 504.47202,16.700492 l 4.92459,7.371678 -0.009,231.27238 c -0.009,226.94689 -0.0887,231.40465 -4.31915,238.34308 -2.37108,3.88887 -7.49284,9.01063 -11.38172,11.38171 -6.93842,4.23042 -11.39619,4.31119 -238.34307,4.31916 l -231.27182,0.008 -7.371678,-4.92459 z M 394.41356,288.10847 c 0,-52.50169 -0.42635,-95.45762 -0.94742,-95.45762 -0.52109,0 -31.4409,21.55251 -68.7107,47.89447 -51.34412,36.28957 -68.64215,47.46008 -71.39048,46.1017 -1.99496,-0.98604 -32.96313,-22.53855 -68.81814,-47.89448 -35.85501,-25.35593 -65.78431,-46.10169 -66.50955,-46.10169 -0.72525,0 -1.31863,42.95593 -1.31863,95.45762 l 0,95.45763 138.84746,0 138.84746,0 0,-95.45763 z M 332.14709,185.90633 c 40.80927,-28.76711 75.12613,-53.17389 76.25969,-54.23729 1.20754,-1.1328 -61.64758,-1.93345 -151.78693,-1.93345 -132.54045,0 -153.40797,0.42423 -150.67118,3.06309 5.47923,5.28319 148.0175,105.41149 150.05918,105.41149 1.06733,0 35.32998,-23.53673 76.13924,-52.30384 z"
     id="path3689"
     inkscape:connector-curvature="0" /></svg>