<?xml version="1.0" encoding="UTF-8" standalone="no"?>
<svg
   xmlns:dc="http://purl.org/dc/elements/1.1/"
   xmlns:cc="http://creativecommons.org/ns#"
   xmlns:rdf="http://www.w3.org/1999/02/22-rdf-syntax-ns#"
   xmlns:sodipodi="http://sodipodi.sourceforge.net/DTD/sodipodi-0.dtd"
   xmlns:inkscape="http://www.inkscape.org/namespaces/inkscape"
   xmlns="http://www.w3.org/2000/svg"
   enable-background="new 0 0 50 50"
   id="Layer_1"
   version="1.1"
   viewBox="0 0 50 50"
   xml:space="preserve"
   inkscape:version="0.91 r13725"
   sodipodi:docname="facebook-dark.svg"><metadata
     id="metadata3435"><rdf:RDF><cc:Work
         rdf:about=""><dc:format>image/svg+xml</dc:format><dc:type
           rdf:resource="http://purl.org/dc/dcmitype/StillImage" /><dc:title></dc:title></cc:Work></rdf:RDF></metadata><defs
     id="defs3433" /><sodipodi:namedview
     pagecolor="#ffffff"
     bordercolor="#666666"
     borderopacity="1"
     objecttolerance="10"
     gridtolerance="10"
     guidetolerance="10"
     inkscape:pageopacity="0"
     inkscape:pageshadow="2"
     inkscape:window-width="1920"
     inkscape:window-height="1056"
     id="namedview3431"
     showgrid="false"
     inkscape:zoom="18.38"
     inkscape:cx="25"
     inkscape:cy="25"
     inkscape:window-x="0"
     inkscape:window-y="24"
     inkscape:window-maximized="1"
     inkscape:current-layer="Layer_1" /><path
     d="M45,1H5C2.8,1,1,2.8,1,5v40c0,2.2,1.8,4,4,4h40c2.2,0,4-1.8,4-4V5C49,2.8,47.2,1,45,1z"
     fill="#3A5BA0"
     id="path3428"
     style="fill:#333333" /><path
     d="M32,26l1-5l-5,0v-4c0-1.5,0.8-2,3-2h2v-5c0,0-2,0-4,0c-4.1,0-7,2.4-7,7v4h-5v5h5v14h6V26H32z"
     fill="#FFFFFF"
     id="f_1_" /><path
     style="fill:#333333"
     d="M 4.2522485,48.900616 C 3.4609874,48.74246 2.7954778,48.380844 2.1961398,47.783394 1.7009159,47.289731 1.3819494,46.750127 1.1888492,46.079332 l -0.1387948,-0.482146 0,-20.578247 c 0,-20.2903185 0.0015,-20.5841058 0.107099,-20.9969997 C 1.3368752,3.3192336 1.6523445,2.781023 2.2165404,2.2145575 2.6249944,1.8044604 2.79513,1.677025 3.2093422,1.4709268 4.1466837,1.004537 1.9462422,1.0454646 25.179543,1.0622876 l 20.674646,0.01497 0.406103,0.1503412 c 1.132304,0.4191843 1.99516,1.2447908 2.43247,2.3274621 0.309969,0.7674065 0.292532,-0.6000957 0.276079,21.6516848 -0.01422,19.237285 -0.02087,20.502808 -0.109245,20.789542 -0.4413,1.43187 -1.431426,2.421997 -2.863308,2.863309 -0.286882,0.08842 -1.545646,0.09468 -20.843949,0.103685 -16.8853308,0.0079 -20.6029233,-0.0033 -20.9000905,-0.06267 z m 23.7836605,-15.8858 0,-6.990624 1.996855,-0.01427 1.996856,-0.01427 0.468484,-2.339499 c 0.257666,-1.286725 0.484694,-2.41907 0.504505,-2.516322 l 0.03602,-0.176823 -2.504066,0 -2.504066,0 0.01631,-2.325897 c 0.01628,-2.321982 0.01652,-2.326335 0.145236,-2.585441 0.26411,-0.531672 0.795259,-0.838474 1.666501,-0.962604 0.209467,-0.02984 1.011289,-0.05475 1.781828,-0.05534 l 1.400979,-0.0011 0,-2.534466 0,-2.5344653 -2.597932,0.024871 c -2.784845,0.02666 -2.918731,0.038137 -3.957808,0.3392822 -1.420231,0.41161 -2.635981,1.297065 -3.394416,2.472223 -0.369617,0.572702 -0.586445,1.054926 -0.789671,1.756215 -0.268284,0.92579 -0.304786,1.405592 -0.304786,4.006174 l 0,2.400525 -2.502721,0 -2.50272,0 0,2.529924 0,2.529924 2.50272,0 2.502721,0 0,6.991295 0,6.991295 3.019586,0 3.019587,0 0,-6.990625 z"
     id="path3437"
     inkscape:connector-curvature="0" /></svg>