<?xml version="1.0" encoding="UTF-8" standalone="no"?>
<svg
   xmlns:dc="http://purl.org/dc/elements/1.1/"
   xmlns:cc="http://creativecommons.org/ns#"
   xmlns:rdf="http://www.w3.org/1999/02/22-rdf-syntax-ns#"
   xmlns:sodipodi="http://sodipodi.sourceforge.net/DTD/sodipodi-0.dtd"
   xmlns:inkscape="http://www.inkscape.org/namespaces/inkscape"
   xmlns="http://www.w3.org/2000/svg"
   enable-background="new 0 0 50 50"
   id="Layer_1"
   version="1.1"
   viewBox="0 0 50 50"
   xml:space="preserve"
   inkscape:version="0.91 r13725"
   sodipodi:docname="github-dark.svg"><metadata
     id="metadata3763"><rdf:RDF><cc:Work
         rdf:about=""><dc:format>image/svg+xml</dc:format><dc:type
           rdf:resource="http://purl.org/dc/dcmitype/StillImage" /><dc:title></dc:title></cc:Work></rdf:RDF></metadata><defs
     id="defs3761" /><sodipodi:namedview
     pagecolor="#ffffff"
     bordercolor="#666666"
     borderopacity="1"
     objecttolerance="10"
     gridtolerance="10"
     guidetolerance="10"
     inkscape:pageopacity="0"
     inkscape:pageshadow="2"
     inkscape:window-width="1920"
     inkscape:window-height="1056"
     id="namedview3759"
     showgrid="false"
     inkscape:zoom="4.72"
     inkscape:cx="25"
     inkscape:cy="25"
     inkscape:window-x="0"
     inkscape:window-y="24"
     inkscape:window-maximized="1"
     inkscape:current-layer="Layer_1" /><path
     d="M45,1H5C2.8,1,1,2.8,1,5v40c0,2.2,1.8,4,4,4h40c2.2,0,4-1.8,4-4V5C49,2.8,47.2,1,45,1z"
     fill="#282828"
     id="path3756" /><path
     d="M30.4,40h-4h-4c0,0,0-2.4,0-4c-5.5,1.2-7-3-7-3c-1-2-2-3-2-3c-2-1.2,0-1,0-1c2,0,3,2,3,2  c1.8,3,4.9,2.5,6,2c0-1,0.4-2.5,1-3c-4.4-0.5-8-3-8-8s1-6,2-7c-0.2-0.5-1-2.3,0-5c0,0,2,0,4,3c1-1,4-1,5-1c1,0,4,0,5,1c2-3,4-3,4-3  c1.1,2.7,0.2,4.5,0,5c1,1,2,2,2,7s-3.6,7.5-8,8c0.6,0.5,1,2.2,1,3L30.4,40L30.4,40z"
     fill="#FFFFFF"
     id="Cat_2_" /><path
     style="fill:#333333"
     d="M 3.444625,48.500072 C 2.3997352,48.025443 1.5308376,47.032504 1.2381369,45.978591 0.91352379,44.809771 0.93638936,5.3380761 1.2624297,4.0432525 1.5890188,2.7462496 2.7462496,1.5890188 4.0432525,1.2624297 5.3499413,0.93340166 44.810595,0.91376237 45.99096,1.2415526 c 0.440157,0.1222322 1.125176,0.5074991 1.522265,0.8561488 1.470995,1.2915509 1.402824,0.1042359 1.337745,23.2991946 l -0.0586,20.884185 -0.568648,0.859216 c -0.342511,0.517527 -0.937818,1.03793 -1.496975,1.308612 -0.926837,0.448674 -0.96164,0.449388 -21.677114,0.444744 C 5.3775326,48.889246 4.2564167,48.868818 3.444625,48.500072 Z M 30.428752,35.709746 c -0.05671,-3.547744 -0.13089,-4.404004 -0.428595,-4.947504 l -0.360015,-0.657253 1.113458,-0.24918 c 1.66612,-0.372862 3.593673,-1.364099 4.589932,-2.360358 1.392436,-1.392436 1.973847,-2.88537 2.076322,-5.331532 0.132888,-3.172106 -0.377752,-5.451675 -1.495172,-6.674643 -0.365237,-0.399737 -0.391186,-0.558406 -0.187082,-1.143903 0.492915,-1.413975 0.136877,-4.4301188 -0.522947,-4.4301188 -0.851911,0 -3.689229,2.1552418 -3.689229,2.8023568 0,0.09605 -0.291305,0.02399 -0.647343,-0.160128 -1.605238,-0.8301 -7.227907,-0.853123 -8.865267,-0.0363 -0.562735,0.280729 -0.613453,0.25961 -1.278267,-0.532258 -0.783845,-0.933648 -1.9711,-1.770965 -2.794991,-1.97118 -0.485798,-0.1180549 -0.58637,-0.048637 -0.794491,0.54838 -0.289321,0.829946 -0.313073,3.150261 -0.03961,3.869521 0.155689,0.409494 0.114089,0.599103 -0.192273,0.876357 -1.10363,0.998771 -1.884199,5.158 -1.490599,7.942593 0.474838,3.359331 2.914015,5.839142 6.469477,6.577255 0.637335,0.132309 1.158788,0.26983 1.158788,0.305599 0,0.03577 -0.143008,0.407305 -0.317796,0.825634 -0.174788,0.418326 -0.317797,0.998648 -0.317797,1.289606 0,0.695826 -0.552118,0.967648 -1.965461,0.967648 -1.541538,0 -2.719927,-0.649928 -3.842699,-2.119398 -1.174585,-1.537284 -2.059359,-2.11789 -3.227408,-2.11789 -0.507132,0 -0.922059,0.07663 -0.922059,0.170303 0,0.09367 0.342379,0.498858 0.760843,0.900424 0.418464,0.401565 1.279511,1.607648 1.913439,2.680182 1.619666,2.74029 2.819906,3.499561 5.532033,3.499561 l 1.539448,0 0,1.88324 0,1.883239 4.146972,0 4.146973,0 -0.06858,-4.290254 z"
     id="path3765"
     inkscape:connector-curvature="0" /></svg>