<?xml version="1.0" encoding="UTF-8" standalone="no"?>
<svg
   xmlns:dc="http://purl.org/dc/elements/1.1/"
   xmlns:cc="http://creativecommons.org/ns#"
   xmlns:rdf="http://www.w3.org/1999/02/22-rdf-syntax-ns#"
   xmlns:sodipodi="http://sodipodi.sourceforge.net/DTD/sodipodi-0.dtd"
   xmlns:inkscape="http://www.inkscape.org/namespaces/inkscape"
   xmlns="http://www.w3.org/2000/svg"
   enable-background="new 0 0 50 50"
   id="Layer_1"
   version="1.1"
   viewBox="0 0 50 50"
   xml:space="preserve"
   inkscape:version="0.91 r13725"
   sodipodi:docname="linkedin-dark.svg"><metadata
     id="metadata3517"><rdf:RDF><cc:Work
         rdf:about=""><dc:format>image/svg+xml</dc:format><dc:type
           rdf:resource="http://purl.org/dc/dcmitype/StillImage" /><dc:title></dc:title></cc:Work></rdf:RDF></metadata><defs
     id="defs3515" /><sodipodi:namedview
     pagecolor="#ffffff"
     bordercolor="#666666"
     borderopacity="1"
     objecttolerance="10"
     gridtolerance="10"
     guidetolerance="10"
     inkscape:pageopacity="0"
     inkscape:pageshadow="2"
     inkscape:window-width="1920"
     inkscape:window-height="1056"
     id="namedview3513"
     showgrid="false"
     inkscape:zoom="4.72"
     inkscape:cx="25"
     inkscape:cy="25"
     inkscape:window-x="0"
     inkscape:window-y="24"
     inkscape:window-maximized="1"
     inkscape:current-layer="Layer_1" /><path
     d="M45,1H5C2.8,1,1,2.8,1,5v40c0,2.2,1.8,4,4,4h40c2.2,0,4-1.8,4-4V5C49,2.8,47.2,1,45,1z"
     fill="#0E76A8"
     id="path3507" /><g
     id="in"><path
       d="M21.3,20.7h5.2v2.6l0,0c0.7-1.4,2.6-2.6,5.2-2.6c5.5,0,6.1,3.1,6.1,7.8V38h-5.2v-8.7   c0-2,0.2-4.3-2.6-4.3c-3.5,0-3.5,2.1-3.5,4.3V38h-5.2L21.3,20.7L21.3,20.7z"
       fill="#FFFFFF"
       id="n_1_" /><rect
       fill="#FFFFFF"
       height="17.3"
       id="_x7C__1_"
       width="5.2"
       x="12.7"
       y="20.7" /><circle
       cx="15.3"
       cy="15"
       fill="#FFFFFF"
       id="_x28____x29__1_"
       r="3" /></g><path
     style="fill:#333333"
     d="M 3.3981847,48.548138 C 2.4432367,48.077409 1.5019479,46.946547 1.232657,45.946477 1.0781285,45.372602 1.0251338,38.597519 1.0648436,24.492424 L 1.1228814,3.8771186 1.6256704,3.0683648 C 1.9022043,2.6235504 2.5149356,2.003847 2.9872956,1.6912463 l 0.858836,-0.5683649 21.0960014,0 c 20.715073,0 21.108988,0.00765 21.815066,0.4237288 0.395483,0.2330508 1.015187,0.7900994 1.377119,1.2378858 l 0.658055,0.814157 0,21.341146 0,21.341146 -0.568648,0.859284 c -0.342549,0.517627 -0.937757,1.037968 -1.496975,1.30868 -0.926943,0.448724 -0.959451,0.44939 -21.783047,0.444572 C 6.2217138,48.889159 4.0183377,48.853833 3.3981847,48.548138 Z m 14.5679173,-19.247291 0,-8.792372 -2.648305,0 -2.648305,0 0,8.792372 0,8.792373 2.648305,0 2.648305,0 0,-8.792373 z m 8.68644,3.383026 c 0,-6.104958 0.08637,-6.569884 1.330106,-7.160076 1.129712,-0.536083 2.95885,-0.471776 3.656784,0.128561 0.80267,0.690428 0.925551,1.663023 0.936087,7.409083 l 0.0092,5.031779 2.648305,0 2.648305,0 0,-5.893292 c 0,-6.366578 -0.162343,-7.900608 -0.986447,-9.321256 -0.904159,-1.558654 -2.396042,-2.194242 -5.136445,-2.188285 -1.857403,0.004 -3.16975,0.403919 -4.299797,1.310177 l -0.782856,0.627824 -0.0646,-1.006991 -0.0646,-1.00699 -2.648305,0 -2.648305,0 -0.05532,8.739407 -0.05532,8.739406 2.756589,0 2.756586,0 0,-5.409347 z M 16.939776,17.58508 c 0.72373,-0.414614 1.450055,-1.709466 1.450055,-2.58508 0,-0.814624 -0.696899,-2.134556 -1.338588,-2.535297 -2.388869,-1.491874 -5.245867,0.458581 -4.722258,3.223856 0.3768,1.989946 2.746387,2.96461 4.610791,1.896521 z"
     id="path3519"
     inkscape:connector-curvature="0" /></svg>