<?xml version="1.0" encoding="UTF-8" standalone="no"?>
<svg
   xmlns:dc="http://purl.org/dc/elements/1.1/"
   xmlns:cc="http://creativecommons.org/ns#"
   xmlns:rdf="http://www.w3.org/1999/02/22-rdf-syntax-ns#"
   xmlns:sodipodi="http://sodipodi.sourceforge.net/DTD/sodipodi-0.dtd"
   xmlns:inkscape="http://www.inkscape.org/namespaces/inkscape"
   xmlns="http://www.w3.org/2000/svg"
   enable-background="new 0 0 50 50"
   id="Layer_1"
   version="1.1"
   viewBox="0 0 50 50"
   xml:space="preserve"
   inkscape:version="0.91 r13725"
   sodipodi:docname="twitter-dark.svg"><metadata
     id="metadata3593"><rdf:RDF><cc:Work
         rdf:about=""><dc:format>image/svg+xml</dc:format><dc:type
           rdf:resource="http://purl.org/dc/dcmitype/StillImage" /><dc:title></dc:title></cc:Work></rdf:RDF></metadata><defs
     id="defs3591" /><sodipodi:namedview
     pagecolor="#ffffff"
     bordercolor="#666666"
     borderopacity="1"
     objecttolerance="10"
     gridtolerance="10"
     guidetolerance="10"
     inkscape:pageopacity="0"
     inkscape:pageshadow="2"
     inkscape:window-width="1920"
     inkscape:window-height="1056"
     id="namedview3589"
     showgrid="false"
     inkscape:zoom="4.72"
     inkscape:cx="25"
     inkscape:cy="25"
     inkscape:window-x="0"
     inkscape:window-y="24"
     inkscape:window-maximized="1"
     inkscape:current-layer="Layer_1" /><path
     d="M45,1H5C2.8,1,1,2.8,1,5v40c0,2.2,1.8,4,4,4h40c2.2,0,4-1.8,4-4V5C49,2.8,47.2,1,45,1z"
     fill="#2CA7E0"
     id="path3586" /><path
     d="M40,16.2c-1.1,0.5-2.8,1.1-4,1.3c1.3-0.8,2.5-2.6,3-4c-1,0.6-2.1,1.4-3.2,1.8L35,14.5  c-1.1-1.2-2.2-2-4-2c-3.4,0-6,2.6-6,6c0,0.4,0,0.7,0.1,1l-0.1,0c-6,0-10-1.3-13-5c-0.5,0.9-1,1.9-1,3c0,2.1,1.3,3.9,3,5  c-1,0-2.2-0.5-3-1c0,3,4.2,6.4,7,7c-1,1-4.6,0.1-5,0c0.8,2.4,3.3,3.9,6,4c-2.1,1.6-4.6,2.5-7.5,2.5c-0.5,0-1,0-1.5-0.1  c2.7,1.7,6.5,2.6,10,2.6c11.3,0,17-8.9,17-17c0-0.3,0-0.7,0-1C38.2,18.6,39.2,17.4,40,16.2z"
     fill="#FFFFFF"
     id="Brid_1_" /><path
     style="fill:#333333"
     d="M 3.4494506,48.603057 C 2.5778922,48.223294 1.5109391,46.961015 1.2415526,45.99096 0.92347722,44.845578 0.93454636,5.0299044 1.2532593,3.8818953 1.5530851,2.8019181 2.801918,1.5530851 3.8818953,1.2532593 5.0379061,0.93232489 44.846222,0.92366226 46.000165,1.244094 c 1.080918,0.3001536 2.416903,1.5382714 2.694801,2.4973941 0.15192,0.5243242 0.20328,7.4570859 0.160432,21.6554079 l -0.06303,20.884185 -0.568648,0.859216 c -0.342511,0.517527 -0.937818,1.03793 -1.496975,1.308612 -0.927097,0.448801 -0.955964,0.449385 -21.783047,0.441104 C 8.18754,48.883339 3.9632964,48.826953 3.4494506,48.603057 Z M 24.427966,37.033854 c 3.254345,-0.752432 5.642411,-2.141765 8.013212,-4.661941 2.729019,-2.900966 4.291172,-6.591957 4.527826,-10.698184 0.11953,-2.073969 0.13678,-2.130959 0.818004,-2.702667 C 38.430966,18.430632 40,16.469237 40,16.204678 c 0,-0.06362 -0.57014,0.115997 -1.266977,0.399147 -0.696837,0.283151 -1.428498,0.514819 -1.625913,0.514819 -0.313735,0 -0.303701,-0.06003 0.07967,-0.476695 0.620764,-0.674672 1.753898,-2.518646 1.753898,-2.854159 0,-0.182663 -0.544854,0.01724 -1.548814,0.568243 l -1.548813,0.850039 -0.829401,-0.849384 c -1.167428,-1.195555 -2.670421,-1.899061 -4.057214,-1.899061 -3.293031,0 -5.998809,2.691645 -5.998809,5.967478 l 0,1.078702 -1.959746,-0.150367 c -4.691087,-0.359937 -7.675694,-1.52892 -10.000624,-3.91695 -0.460619,-0.47312 -0.916867,-0.860219 -1.013885,-0.860219 -0.359107,0 -1.0087,1.964438 -1.004143,3.036633 0.0058,1.373661 0.545697,2.582157 1.727208,3.866428 0.80497,0.874982 0.852017,0.97642 0.386783,0.833941 -0.291313,-0.08922 -0.887182,-0.332463 -1.324152,-0.540549 l -0.794492,-0.378339 0,0.512744 c 0,1.704591 2.534147,4.632021 5.049021,5.832598 0.822211,0.392515 1.500294,0.799451 1.506852,0.904301 0.0068,0.10908 -0.984913,0.13805 -2.318145,0.06772 l -2.330068,-0.122922 0.238009,0.461945 c 0.837205,1.624902 2.20576,2.661265 4.358014,3.300184 l 1.195996,0.355043 -1.466365,0.767214 c -1.837631,0.961459 -2.875861,1.240373 -5.279924,1.418413 l -1.90678,0.141214 1.108396,0.578398 c 3.550572,1.852814 8.94283,2.429661 13.298384,1.422621 z"
     id="path3595"
     inkscape:connector-curvature="0" /></svg>